<?xml version="1.0" encoding="UTF-8" standalone="no"?><!DOCTYPE svg PUBLIC "-//W3C//DTD SVG 1.1//EN" "http://www.w3.org/Graphics/SVG/1.1/DTD/svg11.dtd"><svg width="100%" height="100%" viewBox="0 0 540 540" version="1.1" xmlns="http://www.w3.org/2000/svg" xmlns:xlink="http://www.w3.org/1999/xlink" xml:space="preserve" xmlns:serif="http://www.serif.com/" style="fill-rule:evenodd;clip-rule:evenodd;stroke-linejoin:round;stroke-miterlimit:2;"><g><circle cx="270" cy="270" r="270" style="fill:#4a148c;"/><g><path d="M146.63,430.601c-20.088,-0.326 -36.296,-16.736 -36.296,-36.901l-0,-245.521c-0,-20.369 16.537,-36.905 36.906,-36.905l245.52,-0c20.369,-0 36.906,16.536 36.906,36.905l0,245.521c0,20.165 -16.208,36.575 -36.296,36.901c-1.697,18.27 -17.087,32.592 -35.796,32.592c-18.707,-0 -34.096,-14.319 -35.795,-32.587l-103.558,-0c-1.699,18.268 -17.088,32.587 -35.795,32.587c-18.709,-0 -34.099,-14.322 -35.796,-32.592Zm207.53,-92.19c13.8,0 25.004,11.204 25.004,25.005c0,13.8 -11.204,25.004 -25.004,25.004c-13.8,-0 -25.004,-11.204 -25.004,-25.004c0,-13.801 11.204,-25.005 25.004,-25.005Zm-168.32,0c13.8,0 25.004,11.204 25.004,25.005c-0,13.8 -11.204,25.004 -25.004,25.004c-13.8,-0 -25.004,-11.204 -25.004,-25.004c-0,-13.801 11.204,-25.005 25.004,-25.005Zm200.784,-153.022c0,-21.01 -17.058,-38.068 -38.068,-38.068l-157.112,-0c-21.01,-0 -38.068,17.058 -38.068,38.068l-0,76.138c-0,21.01 17.058,38.068 38.068,38.068l157.112,0c21.01,0 38.068,-17.058 38.068,-38.068l0,-76.138Z" style="fill:#fff;"/></g></g></svg>